<svg id="a_baja" data-name="a baja" xmlns="http://www.w3.org/2000/svg" xmlns:xlink="http://www.w3.org/1999/xlink" width="304.64" height="484.48" viewBox="0 0 304.64 484.48">
  <defs>
    <clipPath id="clip-path">
      <rect id="Rectangle_113" data-name="Rectangle 113" width="304.64" height="484.48" fill="none"/>
    </clipPath>
  </defs>
  <g id="Group_84" data-name="Group 84" clip-path="url(#clip-path)">
    <path id="Path_240" data-name="Path 240" d="M0,396.16C0,339.2,40.96,316.8,112,300.8c96.64-21.761,106.879-26.88,106.879-47.361,0-37.12-28.159-60.8-74.879-60.8-42.88,0-73.6,23.04-73.6,73.6l-52.48-8.96C19.2,183.04,67.84,146.56,144,146.56c86.4,0,124.159,40.32,124.159,112V421.12c0,5.12,1.92,7.681,7.681,7.681h28.8V475.52H270.72c-28.8,0-51.841-23.04-51.841-53.12-22.4,41.6-73.6,62.08-118.4,62.08C47.36,484.48,0,450.56,0,396.16m30.08-320C34.56,37.12,59.52,6.4,102.4,6.4c32,0,68.479,28.16,90.879,28.16S227.2,20.48,227.839,0l32,6.4c-5.761,44.8-29.44,70.4-70.4,70.4-32,0-66.561-28.16-96.64-28.16-18.56,0-29.44,16-30.08,33.92Zm188.8,263.04V309.761c-17.92,13.439-48.64,15.36-103.679,29.439-35.2,8.96-62.72,28.16-62.72,55.04,0,30.08,25.6,42.88,56.32,42.88,48.64,0,110.079-35.2,110.079-97.92" fill="#fff"/>
  </g>
</svg>
