<svg id="ae" xmlns="http://www.w3.org/2000/svg" xmlns:xlink="http://www.w3.org/1999/xlink" width="523.519" height="337.92" viewBox="0 0 523.519 337.92">
  <defs>
    <clipPath id="clip-path">
      <rect id="Rectangle_116" data-name="Rectangle 116" width="523.519" height="337.92" fill="none"/>
    </clipPath>
  </defs>
  <g id="Group_90" data-name="Group 90" clip-path="url(#clip-path)">
    <path id="Path_243" data-name="Path 243" d="M522.88,181.12,272,181.76c0,63.36,45.439,110.08,102.4,110.08,62.72,0,87.039-36.479,92.8-67.84l52.48,5.76c-8.321,49.92-51.84,108.16-145.28,108.16-62.72,0-108.16-27.519-133.12-71.679C210.56,320,158.08,337.92,106.24,337.92,47.36,337.92,0,304,0,249.6c0-56.96,40.96-79.359,112-95.359,96.64-21.761,106.88-26.88,106.88-47.361,0-37.12-28.16-60.8-74.88-60.8-42.88,0-73.6,23.04-73.6,73.6l-52.48-8.96C19.2,36.48,67.84,0,144,0c58.24,0,94.08,19.2,110.72,53.76C281.6,20.48,322.56,0,372.479,0c90.88,0,151.04,52.48,151.04,167.04Zm-304-17.919c-17.92,13.439-48.64,15.36-103.68,29.439C80,201.6,52.48,220.8,52.48,247.68c0,30.08,25.6,42.88,56.32,42.88,48.64,0,110.08-35.2,110.08-97.92ZM471.04,135.68c-3.84-59.52-42.88-89.6-97.92-89.6s-94.08,42.88-98.56,89.6Z" fill="#fff"/>
  </g>
</svg>
