<svg id="o_" data-name="o/" xmlns="http://www.w3.org/2000/svg" xmlns:xlink="http://www.w3.org/1999/xlink" width="465.919" height="565.76" viewBox="0 0 465.919 565.76">
  <defs>
    <clipPath id="clip-path">
      <rect id="Rectangle_117" data-name="Rectangle 117" width="465.919" height="565.76" fill="none"/>
    </clipPath>
  </defs>
  <g id="Group_92" data-name="Group 92" clip-path="url(#clip-path)">
    <path id="Path_244" data-name="Path 244" d="M465.919,269.44c0,155.521-99.2,247.681-232.959,247.681-47.359,0-90.24-11.521-126.08-33.281l-57.6,81.92L29.44,551.68,86.4,469.76C33.28,427.52,0,359.041,0,269.44,0,113.28,99.84,20.481,232.96,20.481c53.119,0,100.479,14.719,138.879,42.239L415.359,0l19.84,14.08-44.8,64c46.72,42.881,75.52,108.16,75.52,191.36m-348.8,156.8,224-320.641c-29.44-23.68-67.2-35.84-108.16-35.84-97.279,0-176,69.12-176,199.68,0,71.681,23.04,124.16,60.161,156.8M408.96,269.44c0-64-19.2-113.28-49.921-146.56L136.319,440.961c28.161,17.28,60.8,26.24,96.641,26.24,97.919,0,176-65.92,176-197.761" fill="#fff"/>
  </g>
</svg>
