<svg id="_3" data-name="3" xmlns="http://www.w3.org/2000/svg" xmlns:xlink="http://www.w3.org/1999/xlink" width="327.04" height="463.36" viewBox="0 0 327.04 463.36">
  <defs>
    <clipPath id="clip-path">
      <rect id="Rectangle_125" data-name="Rectangle 125" width="327.04" height="463.36" fill="none"/>
    </clipPath>
  </defs>
  <g id="Group_107" data-name="Group 107" clip-path="url(#clip-path)">
    <path id="Path_253" data-name="Path 253" d="M0,319.36l55.04-7.68c3.84,70.4,37.12,101.12,111.36,101.12,63.36,0,101.121-30.08,101.121-80,0-73.6-53.122-83.2-105.6-83.2l-47.36-.639V202.24H163.2c40.321,0,91.52-15.36,91.52-76.8,0-50.56-37.119-78.08-85.76-78.08-35.2,0-99.2,17.28-97.92,108.16L16,146.56C21.12,50.56,72.96,0,167.04,0c108.16,0,147.2,65.92,147.2,122.24,0,37.76-25.6,82.56-78.718,97.92l-8.961,2.56,8.961,1.92C291.84,236.8,327.04,278.4,327.04,330.881c0,122.879-123.519,132.479-161.92,132.479-101.76,0-160-50.56-165.12-144" fill="#fff"/>
  </g>
</svg>
