<svg id="_" data-name="@" xmlns="http://www.w3.org/2000/svg" xmlns:xlink="http://www.w3.org/1999/xlink" width="506.879" height="486.4" viewBox="0 0 506.879 486.4">
  <defs>
    <clipPath id="clip-path">
      <rect id="Rectangle_118" data-name="Rectangle 118" width="506.879" height="486.4" fill="none"/>
    </clipPath>
  </defs>
  <g id="Group_94" data-name="Group 94" clip-path="url(#clip-path)">
    <path id="Path_245" data-name="Path 245" d="M109.44,316.8C127.36,218.88,197.76,147.84,272,147.84c41.6,0,67.2,28.8,78.08,59.52l8.96-49.92h49.28l-49.28,275.2H460.8V45.44H46.08v432H0V0H506.88V476.8H302.08L313.6,415.361C284.8,457.6,248.32,486.4,205.44,486.4c-73.6,0-113.92-71.039-96-169.6m220.8,0c16.64-70.4-2.561-122.24-56.96-122.24-53.76,0-96.64,51.84-113.28,122.24-16.64,71.04,1.92,122.88,56.32,122.88S313.6,387.84,330.24,316.8" fill="#fff"/>
  </g>
</svg>
