<svg id="b_" data-name="b$" xmlns="http://www.w3.org/2000/svg" xmlns:xlink="http://www.w3.org/1999/xlink" width="351.36" height="610.56" viewBox="0 0 351.36 610.56">
  <defs>
    <clipPath id="clip-path">
      <rect id="Rectangle_119" data-name="Rectangle 119" width="351.36" height="610.56" fill="none"/>
    </clipPath>
  </defs>
  <g id="Group_96" data-name="Group 96" clip-path="url(#clip-path)">
    <path id="Path_247" data-name="Path 247" d="M351.36,408.32c0,54.4-42.881,122.879-136.32,122.879h-7.681v79.362H169.6V531.2H122.24v79.362H84.48V531.2H0V72.32H84.48V0h37.76V72.32H169.6V0h37.759V72.32h8.321c90.88,0,125.44,69.759,125.44,118.4,0,47.359-27.52,80.639-66.56,103.04,48,14.08,76.8,62.72,76.8,114.56M53.12,271.359h160c40.319,0,70.4-29.44,70.4-74.88,0-49.28-26.879-76.8-73.6-76.8H53.12ZM295.04,400c0-48-38.4-82.559-90.24-82.559H53.12v166.4H211.2c51.2,0,83.84-35.2,83.84-83.84" fill="#fff"/>
  </g>
</svg>
