<svg id="Reloj" xmlns="http://www.w3.org/2000/svg" xmlns:xlink="http://www.w3.org/1999/xlink" width="474.879" height="474.88" viewBox="0 0 474.879 474.88">
  <defs>
    <clipPath id="clip-path">
      <rect id="Rectangle_120" data-name="Rectangle 120" width="474.879" height="474.88" fill="none"/>
    </clipPath>
  </defs>
  <g id="Group_98" data-name="Group 98" clip-path="url(#clip-path)">
    <path id="Path_248" data-name="Path 248" d="M0,237.44C0,106.88,106.24,0,237.44,0,368,0,474.879,107.52,474.879,237.44c0,131.2-106.879,237.44-237.439,237.44C106.24,474.88,0,368.641,0,237.44m453.12,0c0-119.04-96.64-215.68-215.68-215.68-119.68,0-216.32,96.64-216.32,215.68A216.052,216.052,0,0,0,237.44,453.76c119.04,0,215.68-96.64,215.68-216.32M227.2,68.48h20.479V221.44H227.2Z" fill="#fff"/>
  </g>
</svg>
