<svg id="Circulo" xmlns="http://www.w3.org/2000/svg" xmlns:xlink="http://www.w3.org/1999/xlink" width="447.765" height="447.765" viewBox="0 0 447.765 447.765">
  <defs>
    <clipPath id="clip-path">
      <rect id="Rectangle_124" data-name="Rectangle 124" width="447.765" height="447.765" fill="none"/>
    </clipPath>
  </defs>
  <g id="Group_106" data-name="Group 106" clip-path="url(#clip-path)">
    <path id="Path_252" data-name="Path 252" d="M2.646,228.159,228.565,2.879a7.858,7.858,0,0,1,12.16,0c4.48,3.84,4.48,9.6.64,12.8L16.086,240.96c-3.84,3.84-8.96,3.84-13.44,0-3.84-3.2-3.2-8.961,0-12.8m7.68,56.961c-3.84-3.841-3.84-8.961,0-12.8l262.4-262.4c3.84-3.84,8.96-3.84,12.8,0a9.28,9.28,0,0,1,0,13.44l-262.4,262.4c-3.2,3.2-8.96,3.2-12.8-.64m.64-115.841L169.046,11.2a9.73,9.73,0,0,1,12.8,0c3.841,4.48,3.841,9.6,0,13.439L24.405,182.079c-3.839,3.84-8.96,3.84-13.439,0a9.733,9.733,0,0,1,0-12.8M25.046,320.96c-3.84-3.84-3.84-8.96,0-12.8L308.565,24.639c3.2-3.2,8.96-3.2,12.8,0,3.841,4.48,3.841,9.6,0,13.44L38.486,321.6a9.9,9.9,0,0,1-13.44-.639m14.72,35.84a7.858,7.858,0,0,1,0-12.161L344.4,40a7.858,7.858,0,0,1,12.16,0c4.481,3.84,4.481,9.6.641,12.8L52.566,357.439c-3.2,3.84-8.96,3.84-12.8-.639m6.4-273.281L83.286,46.4c3.84-3.84,8.96-3.84,12.8,0s3.839,8.96,0,12.8l-37.12,37.12c-3.2,3.84-8.96,3.84-12.8,0a9.07,9.07,0,0,1,0-12.8M57.046,390.08a9.732,9.732,0,0,1,0-12.8l320-320a9.732,9.732,0,0,1,12.8,0c3.84,4.48,3.84,9.6.64,13.44l-320,320c-3.84,3.2-8.96,3.2-13.44-.64M90.325,395.2,394.966,90.559c3.2-3.84,8.959-3.84,12.8.64a7.858,7.858,0,0,1,0,12.16L103.126,408a7.858,7.858,0,0,1-12.16,0c-4.48-3.841-4.48-9.6-.641-12.8m35.841,14.08L409.685,126.4c3.84-3.84,8.96-3.84,13.441,0,3.2,3.84,3.2,9.6,0,12.8L139.606,422.72c-3.841,3.839-8.96,3.839-12.8,0a9.9,9.9,0,0,1-.639-13.441m35.84,15.36,262.4-262.4a9.28,9.28,0,0,1,13.44,0c3.84,3.84,3.84,8.96,0,12.8l-262.4,262.4c-3.839,3.84-8.959,3.84-12.8,0s-3.841-9.6-.64-12.8m44.8,7.041L432.086,206.4c3.2-3.84,8.96-3.84,12.8.64a7.858,7.858,0,0,1,0,12.16L219.606,445.119c-3.841,3.2-9.6,3.841-12.8,0-3.839-4.48-3.839-9.6,0-13.439m58.88-8.321L423.126,265.92c3.84-3.841,8.96-3.841,13.439,0a9.733,9.733,0,0,1,0,12.8L278.485,436.8a9.733,9.733,0,0,1-12.8,0c-3.84-4.481-3.84-9.6,0-13.441m85.76-35.2,37.12-37.119a9.1,9.1,0,0,1,12.8.64c3.841,3.839,3.841,8.959,0,12.8L364.246,401.6a8.9,8.9,0,0,1-12.16,0c-4.481-4.48-4.481-9.6-.641-13.44" fill="#fff"/>
  </g>
</svg>
