<svg xmlns="http://www.w3.org/2000/svg" width="476.16" height="475.52" viewBox="0 0 476.16 475.52">
  <path id="Asterisco" d="M227.839,0V184.96L156.8,14.08l-19.2,7.68,71.679,172.16L77.439,62.72,62.72,77.44l131.2,131.2L22.4,137.6l-7.68,19.2L185.6,227.84H0l.639,20.48h185.6L14.08,319.36l8.32,19.2,171.52-71.039-131.2,131.2L77.439,413.44l131.2-131.2L137.6,453.76l19.2,7.68,71.04-172.16V475.52h20.48V288.641L320,461.44l19.2-8.32-70.4-169.6L398.719,413.44l15.361-14.719L282.879,268.16l170.881,70.4,8.319-19.2-172.8-71.679H476.16l-.641-20.481h-185.6l172.16-71.04-8.319-19.2L282.239,208l131.2-131.2L398.719,62.08l-131.2,131.2,71.04-171.52-19.2-7.68-71.04,172.16V0Z" transform="translate(0 0)" fill="#fff"/>
</svg>
